<svg width="68" height="68" viewBox="0 0 68 68" fill="none" xmlns="http://www.w3.org/2000/svg">
<path d="M41.7031 2L64.917 54H3.13379L27.2764 2H41.7031Z" fill="#26E6B5" fill-opacity="0.5" stroke="black" stroke-width="4"/>
<path d="M34 46C43.2237 46 51.4883 47.3224 57.376 49.4004C60.3287 50.4425 62.5764 51.6373 64.0469 52.8643C65.5286 54.1007 66 55.17 66 56C66 56.83 65.5286 57.8993 64.0469 59.1357C62.5764 60.3627 60.3287 61.5575 57.376 62.5996C51.4883 64.6776 43.2237 66 34 66C24.7763 66 16.5117 64.6776 10.624 62.5996C7.67125 61.5575 5.42361 60.3627 3.95312 59.1357C2.47139 57.8993 2 56.83 2 56C2 55.17 2.47139 54.1007 3.95312 52.8643C5.42361 51.6373 7.67125 50.4425 10.624 49.4004C16.5117 47.3224 24.7763 46 34 46Z" fill="#26E6B5" stroke="black" stroke-width="4"/>
</svg>
