<svg width="32" height="32" viewBox="0 0 32 32" fill="none" xmlns="http://www.w3.org/2000/svg">
<g clip-path="url(#clip0_11497_18960)">
<g filter="url(#filter0_ddd_11497_18960)">
<path d="M25.8488 17.0545C26.3602 19.4603 22.614 22.2951 17.4815 23.386C12.349 24.477 7.77373 23.411 7.26235 21.0051C6.75097 18.5993 10.4971 15.7646 15.6296 14.6736C20.7621 13.5827 25.3374 14.6486 25.8488 17.0545Z" fill="#F9614D" shape-rendering="crispEdges"/>
<path d="M24.6871 17.3014C24.5838 16.8151 23.949 16.1164 22.2027 15.7095C20.5581 15.3263 18.3115 15.3177 15.8765 15.8353C13.4416 16.3528 11.3927 17.2745 10.0462 18.2934C8.61631 19.3754 8.32065 20.272 8.424 20.7582C8.52736 21.2445 9.16212 21.9433 10.9085 22.3501C12.553 22.7333 14.7996 22.7419 17.2346 22.2244L17.4815 23.386C12.349 24.477 7.77373 23.411 7.26235 21.0051C6.75097 18.5993 10.4971 15.7646 15.6296 14.6736C20.7621 13.5827 25.3374 14.6486 25.8488 17.0545C26.3602 19.4603 22.614 22.2951 17.4815 23.386L17.2346 22.2244C19.6696 21.7068 21.7184 20.7851 23.065 19.7662C24.4948 18.6842 24.7905 17.7877 24.6871 17.3014Z" fill="black" fill-opacity="0.1" shape-rendering="crispEdges"/>
<path d="M31.9727 13.021C32.4841 15.4269 25.7474 18.8972 16.9259 20.7723C8.10445 22.6474 0.538672 22.2171 0.0272912 19.8112C-0.48409 17.4053 6.25258 13.935 15.0741 12.0599C23.8955 10.1848 31.4613 10.6151 31.9727 13.021Z" fill="#3C7DFF" shape-rendering="crispEdges"/>
<path d="M30.8111 13.2679C30.8103 13.2645 30.8078 13.2529 30.7932 13.2299C30.7774 13.205 30.7444 13.1627 30.6805 13.1068C30.5467 12.9901 30.312 12.8457 29.935 12.7024C29.177 12.4143 28.0439 12.2046 26.5724 12.1209C23.6469 11.9545 19.659 12.2995 15.321 13.2216C10.983 14.1436 7.19952 15.4505 4.59461 16.7924C3.28442 17.4674 2.33453 18.1198 1.75926 18.6913C1.47317 18.9756 1.31741 19.203 1.24271 19.364C1.20699 19.4411 1.19413 19.4931 1.1898 19.5223C1.18581 19.5493 1.18822 19.5609 1.18894 19.5643C1.18966 19.5677 1.19219 19.5793 1.2068 19.6023C1.22263 19.6272 1.25555 19.6695 1.31951 19.7254C1.45326 19.8421 1.68804 19.9865 2.06502 20.1298C2.82301 20.4179 3.95615 20.6276 5.4276 20.7113C8.3531 20.8777 12.341 20.5327 16.679 19.6106L16.9259 20.7723C8.10445 22.6474 0.538672 22.2171 0.0272912 19.8112C-0.48409 17.4053 6.25258 13.935 15.0741 12.0599C23.8955 10.1848 31.4613 10.6151 31.9727 13.021C32.4841 15.4269 25.7474 18.8972 16.9259 20.7723L16.679 19.6106C21.017 18.6886 24.8005 17.3817 27.4054 16.0398C28.7156 15.3648 29.6655 14.7124 30.2407 14.1409C30.5268 13.8566 30.6826 13.6292 30.7573 13.4682C30.793 13.3911 30.8059 13.3391 30.8102 13.3099C30.8142 13.2829 30.8118 13.2713 30.8111 13.2679Z" fill="black" fill-opacity="0.1" shape-rendering="crispEdges"/>
<path d="M22.9082 14.6442C22.7136 13.7289 22.3407 12.8609 21.8107 12.0897C21.2807 11.3185 20.6039 10.6593 19.8192 10.1496C19.0344 9.63999 18.1569 9.28991 17.2368 9.11938C16.3167 8.94886 15.3721 8.96122 14.4568 9.15578C13.5415 9.35033 12.6735 9.72326 11.9023 10.2533C11.1311 10.7833 10.4719 11.46 9.96222 12.2448C9.45258 13.0296 9.1025 13.9071 8.93197 14.8271C8.76144 15.7472 8.77381 16.6919 8.96836 17.6072C8.96836 17.6072 10.5328 18.5413 16.1959 17.3376C21.8589 16.1339 22.9082 14.6442 22.9082 14.6442Z" fill="#F9C600" shape-rendering="crispEdges"/>
<path d="M14.6288 9.12129C15.4901 8.96026 16.3743 8.95952 17.2368 9.11938C18.1569 9.28991 19.0344 9.63999 19.8192 10.1496C20.6039 10.6593 21.2807 11.3185 21.8107 12.0897C22.3407 12.8609 22.7136 13.7289 22.9082 14.6442C22.9082 14.6442 21.8589 16.1339 16.1959 17.3376L15.9489 16.1759C18.7024 15.5906 20.267 14.9497 21.1123 14.4941C21.2963 14.395 21.4449 14.3045 21.5641 14.2265C21.389 13.7081 21.1431 13.2152 20.832 12.7625C20.3903 12.1198 19.8264 11.5702 19.1724 11.1455C18.5185 10.7208 17.787 10.4292 17.0203 10.2871C16.2536 10.145 15.4664 10.1553 14.7037 10.3174C13.941 10.4795 13.2177 10.7904 12.575 11.232C11.9324 11.6737 11.3828 12.2375 10.9581 12.8915C10.5334 13.5455 10.2418 14.2769 10.0997 15.0437C9.99962 15.5838 9.97512 16.1342 10.0261 16.679C10.1668 16.7018 10.3394 16.7239 10.548 16.7397C11.5054 16.812 13.1955 16.7612 15.9489 16.1759L16.1959 17.3376L15.677 17.4443C10.4366 18.4839 8.96836 17.6072 8.96836 17.6072C8.78598 16.7491 8.76368 15.8653 8.9021 15L8.93197 14.8271C9.1025 13.9071 9.45258 13.0296 9.96222 12.2448C10.44 11.5091 11.0492 10.8683 11.7589 10.3544L11.9023 10.2533C12.6735 9.72326 13.5415 9.35033 14.4568 9.15578L14.6288 9.12129Z" fill="black" fill-opacity="0.1" shape-rendering="crispEdges"/>
</g>
</g>
<defs>
<filter id="filter0_ddd_11497_18960" x="-1.1876" y="8.4062" width="34.3752" height="17.1897" filterUnits="userSpaceOnUse" color-interpolation-filters="sRGB">
<feFlood flood-opacity="0" result="BackgroundImageFix"/>
<feColorMatrix in="SourceAlpha" type="matrix" values="0 0 0 0 0 0 0 0 0 0 0 0 0 0 0 0 0 0 127 0" result="hardAlpha"/>
<feOffset dy="0.593802"/>
<feGaussianBlur stdDeviation="0.593802"/>
<feComposite in2="hardAlpha" operator="out"/>
<feColorMatrix type="matrix" values="0 0 0 0 0 0 0 0 0 0 0 0 0 0 0 0 0 0 0.06 0"/>
<feBlend mode="normal" in2="BackgroundImageFix" result="effect1_dropShadow_11497_18960"/>
<feColorMatrix in="SourceAlpha" type="matrix" values="0 0 0 0 0 0 0 0 0 0 0 0 0 0 0 0 0 0 127 0" result="hardAlpha"/>
<feOffset dy="0.296901"/>
<feGaussianBlur stdDeviation="0.296901"/>
<feComposite in2="hardAlpha" operator="out"/>
<feColorMatrix type="matrix" values="0 0 0 0 0 0 0 0 0 0 0 0 0 0 0 0 0 0 0.08 0"/>
<feBlend mode="normal" in2="effect1_dropShadow_11497_18960" result="effect2_dropShadow_11497_18960"/>
<feColorMatrix in="SourceAlpha" type="matrix" values="0 0 0 0 0 0 0 0 0 0 0 0 0 0 0 0 0 0 127 0" result="hardAlpha"/>
<feOffset/>
<feComposite in2="hardAlpha" operator="out"/>
<feColorMatrix type="matrix" values="0 0 0 0 0 0 0 0 0 0 0 0 0 0 0 0 0 0 0.08 0"/>
<feBlend mode="normal" in2="effect2_dropShadow_11497_18960" result="effect3_dropShadow_11497_18960"/>
<feBlend mode="normal" in="SourceGraphic" in2="effect3_dropShadow_11497_18960" result="shape"/>
</filter>
<clipPath id="clip0_11497_18960">
<rect width="32" height="32" fill="white"/>
</clipPath>
</defs>
</svg>
